<svg xmlns="http://www.w3.org/2000/svg" viewBox="0 0 512 512"><title>List</title><g id="List"><g id="List-2" data-name="List"><path d="M256,73.8247c-100.6083,0-182.18,81.5625-182.18,182.1708a182.18,182.18,0,0,0,364.36,0C438.18,155.3872,356.6083,73.8247,256,73.8247ZM183.5167,322.1509a12.5856,12.5856,0,1,1,12.5856-12.5856A12.5785,12.5785,0,0,1,183.5167,322.1509Zm0-53.56a12.5861,12.5861,0,1,1,12.5856-12.5955A12.5812,12.5812,0,0,1,183.5167,268.591Zm0-53.57a12.5861,12.5861,0,1,1,12.5856-12.5856A12.5791,12.5791,0,0,1,183.5167,215.0212ZM341.0689,321.36H223.0843a12.5991,12.5991,0,0,1,0-25.1982H341.0689a12.5991,12.5991,0,1,1,0,25.1982Zm0-53.1558H223.0843a12.6036,12.6036,0,0,1,0-25.2072H341.0689a12.6036,12.6036,0,1,1,0,25.2072Zm0-53.1567H223.0843a12.5991,12.5991,0,0,1,0-25.1982H341.0689a12.5991,12.5991,0,1,1,0,25.1982Z"/></g></g></svg>