<svg id="LIVE" xmlns="http://www.w3.org/2000/svg" viewBox="0 0 500 500"><g id="square_movie"><path d="M148.35349,449.06847l201.4451.93146c.156.00112.30944.00112.4654.00112a98.93067,98.93067,0,0,0,98.80434-98.35579l.93057-201.44286a98.81353,98.81353,0,0,0-98.35243-99.27064l-201.44511-.93169c-.16022-.00112-.31371-.00112-.47393-.00112a98.80593,98.80593,0,0,0-98.79131,98.35467l-.93506,201.444A98.9306,98.9306,0,0,0,148.35349,449.06847ZM68.91374,148.437a80.82762,80.82762,0,0,1,80.81593-80.46042c.12944,0,.25888,0,.38832.00112l201.44511.93169A80.83491,80.83491,0,0,1,432.02127,150.119l-.93056,201.44286A80.92744,80.92744,0,0,1,350.264,432.02343c-.12517,0-.25686,0-.382-.00112l-201.44489-.93147A80.93156,80.93156,0,0,1,67.97868,349.881Z" style="fill:#ff494b"/><path d="M273.0119,373.77211c11.405,0,22.71787-.40494,33.65748-.79663,10.37039-.37124,20.16685-.722,29.51993-.722h9.5023a34.64758,34.64758,0,0,0,6.6834-68.64418A123.01209,123.01209,0,0,0,152.32677,165.06562c-20.85247,22.21922-32.45276,51.78319-32.66242,83.24561-.20944,31.44758,10.98814,61.22594,31.53005,83.84943C184.48761,368.82827,231.4573,373.77211,273.0119,373.77211ZM165.43582,177.36816a105.023,105.023,0,0,1,181.6131,71.87206,104.643,104.643,0,0,1-28.31274,71.69993h26.95543a16.66784,16.66784,0,1,1,0,33.33568h-9.5023c-19.79808,0-41.50089,1.51866-63.17741,1.51866-40.498,0-80.89054-5.303-108.50754-35.71884C128.31091,280.21432,128.75428,216.45331,165.43582,177.36816Z" style="fill:#ff494b"/><path d="M304.993,207.70832a24.83923,24.83923,0,1,0,24.83766,24.83923A24.84049,24.84049,0,0,0,304.993,207.70832Z" style="fill:#ff494b"/><path d="M280.15283,277.28037A24.83867,24.83867,0,1,0,304.993,302.11848,24.83853,24.83853,0,0,0,280.15283,277.28037Z" style="fill:#ff494b"/><circle cx="205.3248" cy="303.58388" r="24.83901" style="fill:#ff494b"/><path d="M266.85186,184.01111c0-15.47963-12.74366-24.344-25.37429-24.34237-9.58364.00135-19.10459,5.10587-22.93832,16.29694a25.38681,25.38681,0,0,0,5.77711,25.4471,24.29963,24.29963,0,0,0,6.73172,4.86991,23.80563,23.80563,0,0,0,10.43286,2.371C254.31787,208.65371,266.85186,198.72894,266.85186,184.01111Z" style="fill:#ff494b"/><path d="M203.79513,232.54755a24.83822,24.83822,0,1,0-24.83766,24.83923A24.83969,24.83969,0,0,0,203.79513,232.54755Z" style="fill:#ff494b"/></g></svg>